<svg width="32" height="32" viewBox="0 0 32 32" fill="none" xmlns="http://www.w3.org/2000/svg">
<path fill-rule="evenodd" clip-rule="evenodd" d="M20 1.66675H14.592C12.1413 1.66675 10.2 1.66675 8.68133 1.87075C7.11867 2.08141 5.85333 2.52408 4.85467 3.52141C3.85733 4.52008 3.41467 5.78541 3.204 7.34808C3 8.86808 3 10.8081 3 13.2587V21.3334C3.00003 22.5246 3.42525 23.6767 4.19912 24.5824C4.97299 25.488 6.04469 26.0876 7.22133 26.2734C7.404 27.2921 7.75733 28.1614 8.464 28.8694C9.26667 29.6721 10.2773 30.0161 11.4773 30.1787C12.6333 30.3334 14.104 30.3334 15.9267 30.3334H20.0733C21.896 30.3334 23.3667 30.3334 24.5227 30.1787C25.7227 30.0161 26.7333 29.6721 27.536 28.8694C28.3387 28.0667 28.6827 27.0561 28.8453 25.8561C29 24.7001 29 23.2294 29 21.4067V14.5934C29 12.7707 29 11.3001 28.8453 10.1441C28.6827 8.94408 28.3387 7.93341 27.536 7.13075C26.828 6.42408 25.9587 6.07075 24.94 5.88808C24.7542 4.71143 24.1546 3.63973 23.2489 2.86586C22.3433 2.092 21.1912 1.66678 20 1.66675ZM22.84 5.69475C22.6373 5.10275 22.2545 4.58896 21.7452 4.22531C21.236 3.86167 20.6258 3.66637 20 3.66675H14.6667C12.124 3.66675 10.3187 3.66941 8.94667 3.85341C7.60667 4.03341 6.83333 4.37208 6.26933 4.93608C5.70533 5.50008 5.36667 6.27341 5.18667 7.61475C5.00267 8.98541 5 10.7907 5 13.3334V21.3334C4.99962 21.9592 5.19492 22.5694 5.55857 23.0786C5.92221 23.5879 6.436 23.9707 7.028 24.1734C7 23.3601 7 22.4401 7 21.4067V14.5934C7 12.7707 7 11.3001 7.156 10.1441C7.316 8.94408 7.66267 7.93341 8.464 7.13075C9.26667 6.32808 10.2773 5.98408 11.4773 5.82275C12.6333 5.66675 14.104 5.66675 15.9267 5.66675H20.0733C21.1067 5.66675 22.0267 5.66675 22.84 5.69475ZM9.87733 8.54675C10.2467 8.17741 10.764 7.93741 11.744 7.80541C12.7493 7.67075 14.0853 7.66808 15.9987 7.66808H19.9987C21.912 7.66808 23.2467 7.67075 24.2547 7.80541C25.2333 7.93741 25.7507 8.17875 26.12 8.54675C26.4893 8.91608 26.7293 9.43341 26.8613 10.4134C26.996 11.4187 26.9987 12.7547 26.9987 14.6681V21.3347C26.9987 23.2481 26.996 24.5827 26.8613 25.5907C26.7293 26.5694 26.488 27.0867 26.12 27.4561C25.7507 27.8254 25.2333 28.0654 24.2533 28.1974C23.2467 28.3321 21.912 28.3347 19.9987 28.3347H15.9987C14.0853 28.3347 12.7493 28.3321 11.7427 28.1974C10.764 28.0654 10.2467 27.8241 9.87733 27.4561C9.508 27.0867 9.268 26.5694 9.136 25.5894C9.00133 24.5827 8.99867 23.2481 8.99867 21.3347V14.6681C8.99867 12.7547 9.00133 11.4187 9.136 10.4121C9.268 9.43341 9.50933 8.91608 9.87733 8.54675Z" fill="#151515"/>
</svg>
